<?xml version="1.0" encoding="utf-8"?>
<svg version="1.1" xmlns:xlink="http://www.w3.org/1999/xlink" width="31px" height="20px" xmlns="http://www.w3.org/2000/svg">
  <g transform="matrix(1 0 0 1 -47 -625 )">
    <path d="M 26.543990086741 11.4263445050663  C 26.5567947129285 11.4471291244479  26.5631970260223 11.4783060535204  26.5631970260223 11.5198752922837  L 26.5631970260223 19.0023382696804  C 26.5631970260223 19.272538321642  26.4415530772408 19.5063652896856  26.1982651796778 19.7038191738114  C 25.9549772821148 19.9012730579371  25.6668731928955 20  25.3339529120198 20  L 17.958488228005 20  L 17.958488228005 14.0140296180826  L 13.041511771995 14.0140296180826  L 13.041511771995 20  L 5.66604708798017 20  C 5.3331268071045 20  5.04502271788517 19.9012730579371  4.80173482032218 19.7038191738114  C 4.55844692275919 19.5063652896856  4.4368029739777 19.272538321642  4.4368029739777 19.0023382696804  L 4.4368029739777 11.5198752922837  C 4.4368029739777 11.5094829825929  4.44000413052458 11.4938945180566  4.44640644361834 11.473109898675  C 4.4528087567121 11.4523252792933  4.45600991325898 11.4367368147571  4.45600991325898 11.4263445050663  L 15.5 4.03741231488698  L 26.543990086741 11.4263445050663  Z M 30.9807930607187 10.0779423226812  C 30.9935976869062 10.2182385035074  30.9487814952499 10.3403481423746  30.8463444857497 10.4442712392829  L 29.6555142503098 11.5978176149649  C 29.5530772408096 11.6913484021824  29.4186286658406 11.7485061054819  29.2521685254027 11.7692907248636  L 29.1945477075589 11.7692907248636  C 29.028087567121 11.7692907248636  28.893638992152 11.7329176409457  28.7912019826518 11.6601714731099  L 15.5 2.66562743569758  L 2.2087980173482 11.6601714731099  C 2.05514250309789 11.7433099506365  1.90148698884758 11.7796830345544  1.74783147459727 11.7692907248636  C 1.58137133415944 11.7485061054819  1.44692275919042 11.6913484021824  1.34448574969021 11.5978176149649  L 0.15365551425031 10.4442712392829  C 0.0512185047501033 10.3403481423746  0.00640231309376295 10.2182385035074  0.0192069392812887 10.0779423226812  C 0.0320115654688146 9.93764614185503  0.102437009500207 9.82592881267862  0.230483271375465 9.74279033515199  L 14.0402726146221 0.405300077942323  C 14.4500206526229 0.135100025980772  14.9365964477489 0  15.5 0  C 16.0634035522511 0  16.5499793473771 0.135100025980772  16.9597273853779 0.405300077942323  L 21.6462205700124 3.58534684333593  L 21.6462205700124 0.54559625876851  C 21.6462205700124 0.400103923096906  21.7038413878563 0.280592361652376  21.819083023544 0.187061574434919  C 21.9343246592317 0.0935307872174596  22.0815778603883 0.0467653936087298  22.2608426270136 0.0467653936087298  L 25.9485749690211 0.0467653936087298  C 26.1278397356464 0.0467653936087298  26.275092936803 0.0935307872174596  26.3903345724907 0.187061574434919  C 26.5055762081784 0.280592361652376  26.5631970260223 0.400103923096906  26.5631970260223 0.54559625876851  L 26.5631970260223 6.90568978955573  L 30.7695167286245 9.74279033515199  C 30.8975629904998 9.82592881267862  30.9679884345312 9.93764614185503  30.9807930607187 10.0779423226812  Z " fill-rule="nonzero" fill="#797979" stroke="none" transform="matrix(1 0 0 1 47 625 )" />
  </g>
</svg>