<?xml version="1.0" encoding="utf-8"?>
<svg version="1.1" xmlns:xlink="http://www.w3.org/1999/xlink" width="21px" height="19px" xmlns="http://www.w3.org/2000/svg">
  <g transform="matrix(1 0 0 1 -176 -626 )">
    <path d="M 14.4921875 0.720982142857143  L 20.0703125 5.046875  C 20.1979166666667 5.14583333333333  20.3255208333333 5.27306547619048  20.453125 5.42857142857143  L 14 5.42857142857143  L 14 0.424107142857143  C 14.2005208333333 0.523065476190475  14.3645833333333 0.622023809523807  14.4921875 0.720982142857143  Z M 12.6328125 6.48883928571428  C 12.8880208333333 6.68675595238095  13.1979166666667 6.78571428571428  13.5625 6.78571428571428  L 21 6.78571428571428  L 21 17.9821428571429  C 21 18.264880952381  20.8723958333333 18.5052083333333  20.6171875 18.703125  C 20.3619791666667 18.9010416666667  20.0520833333333 19  19.6875 19  L 1.3125 19  C 0.947916666666667 19  0.638020833333333 18.9010416666667  0.3828125 18.703125  C 0.127604166666667 18.5052083333333  0 18.264880952381  0 17.9821428571429  L 0 1.01785714285714  C 0 0.735119047619047  0.127604166666667 0.494791666666666  0.3828125 0.296875  C 0.638020833333333 0.098958333333334  0.947916666666667 0  1.3125 0  L 12.25 0  L 12.25 5.76785714285714  C 12.25 6.05059523809524  12.3776041666667 6.29092261904762  12.6328125 6.48883928571428  Z M 15.626953125 14.8331473214286  C 15.708984375 14.76953125  15.75 14.688244047619  15.75 14.5892857142857  L 15.75 13.9107142857143  C 15.75 13.811755952381  15.708984375 13.73046875  15.626953125 13.6668526785714  C 15.544921875 13.6032366071429  15.4401041666667 13.5714285714286  15.3125 13.5714285714286  L 5.6875 13.5714285714286  C 5.55989583333333 13.5714285714286  5.455078125 13.6032366071429  5.373046875 13.6668526785714  C 5.291015625 13.73046875  5.25 13.811755952381  5.25 13.9107142857143  L 5.25 14.5892857142857  C 5.25 14.688244047619  5.291015625 14.76953125  5.373046875 14.8331473214286  C 5.455078125 14.8967633928571  5.55989583333333 14.9285714285714  5.6875 14.9285714285714  L 15.3125 14.9285714285714  C 15.4401041666667 14.9285714285714  15.544921875 14.8967633928571  15.626953125 14.8331473214286  Z M 15.626953125 12.1188616071429  C 15.708984375 12.0552455357143  15.75 11.9739583333333  15.75 11.875  L 15.75 11.1964285714286  C 15.75 11.0974702380952  15.708984375 11.0161830357143  15.626953125 10.9525669642857  C 15.544921875 10.8889508928571  15.4401041666667 10.8571428571429  15.3125 10.8571428571429  L 5.6875 10.8571428571429  C 5.55989583333333 10.8571428571429  5.455078125 10.8889508928571  5.373046875 10.9525669642857  C 5.291015625 11.0161830357143  5.25 11.0974702380952  5.25 11.1964285714286  L 5.25 11.875  C 5.25 11.9739583333333  5.291015625 12.0552455357143  5.373046875 12.1188616071429  C 5.455078125 12.1824776785714  5.55989583333333 12.2142857142857  5.6875 12.2142857142857  L 15.3125 12.2142857142857  C 15.4401041666667 12.2142857142857  15.544921875 12.1824776785714  15.626953125 12.1188616071429  Z M 15.626953125 9.40457589285714  C 15.708984375 9.34095982142857  15.75 9.25967261904762  15.75 9.16071428571428  L 15.75 8.48214285714286  C 15.75 8.38318452380952  15.708984375 8.30189732142857  15.626953125 8.23828125  C 15.544921875 8.17466517857143  15.4401041666667 8.14285714285714  15.3125 8.14285714285714  L 5.6875 8.14285714285714  C 5.55989583333333 8.14285714285714  5.455078125 8.17466517857143  5.373046875 8.23828125  C 5.291015625 8.30189732142857  5.25 8.38318452380952  5.25 8.48214285714286  L 5.25 9.16071428571428  C 5.25 9.25967261904762  5.291015625 9.34095982142857  5.373046875 9.40457589285714  C 5.455078125 9.46819196428572  5.55989583333333 9.5  5.6875 9.5  L 15.3125 9.5  C 15.4401041666667 9.5  15.544921875 9.46819196428572  15.626953125 9.40457589285714  Z " fill-rule="nonzero" fill="#797979" stroke="none" transform="matrix(1 0 0 1 176 626 )" />
  </g>
</svg>