<?xml version="1.0" encoding="utf-8"?>
<svg version="1.1" xmlns:xlink="http://www.w3.org/1999/xlink" width="21px" height="22px" xmlns="http://www.w3.org/2000/svg">
  <g transform="matrix(1 0 0 1 -300 -625 )">
    <path d="M 17.5 6.28571428571429  C 17.5 7.48883928571429  17.1399739583333 8.60193452380952  16.419921875 9.625  C 16.8483072916667 9.73958333333333  17.2561848958333 9.89508928571428  17.6435546875 10.0915178571429  C 18.0309244791667 10.2879464285714  18.4365234375 10.586681547619  18.8603515625 10.9877232142857  C 19.2841796875 11.3887648809524  19.646484375 11.8614211309524  19.947265625 12.4056919642857  C 20.248046875 12.949962797619  20.4986979166667 13.6538318452381  20.69921875 14.5172991071429  C 20.8997395833333 15.3807663690476  21 16.3485863095238  21 17.4207589285714  C 21 18.6811755952381  20.5442708333333 19.7594866071429  19.6328125 20.6556919642857  C 18.7213541666667 21.5518973214286  17.623046875 22  16.337890625 22  L 4.662109375 22  C 3.376953125 22  2.27864583333333 21.5518973214286  1.3671875 20.6556919642857  C 0.455729166666667 19.7594866071429  0 18.6811755952381  0 17.4207589285714  C 0 16.3485863095238  0.100260416666667 15.3807663690476  0.30078125 14.5172991071429  C 0.501302083333333 13.6538318452381  0.751953125 12.949962797619  1.052734375 12.4056919642857  C 1.353515625 11.8614211309524  1.7158203125 11.3887648809524  2.1396484375 10.9877232142857  C 2.5634765625 10.586681547619  2.96907552083333 10.2879464285714  3.3564453125 10.0915178571429  C 3.74381510416667 9.89508928571428  4.15169270833333 9.73958333333333  4.580078125 9.625  C 3.86002604166667 8.60193452380952  3.5 7.48883928571429  3.5 6.28571428571429  C 3.5 5.43452380952381  3.6845703125 4.62220982142857  4.0537109375 3.84877232142857  C 4.4228515625 3.07533482142857  4.921875 2.40625  5.55078125 1.84151785714286  C 6.1796875 1.27678571428571  6.9248046875 0.828683035714285  7.7861328125 0.497209821428571  C 8.6474609375 0.165736607142856  9.55208333333333 0  10.5 0  C 11.4479166666667 0  12.3525390625 0.165736607142856  13.2138671875 0.497209821428571  C 14.0751953125 0.828683035714285  14.8203125 1.27678571428571  15.44921875 1.84151785714286  C 16.078125 2.40625  16.5771484375 3.07533482142857  16.9462890625 3.84877232142857  C 17.3154296875 4.62220982142857  17.5 5.43452380952381  17.5 6.28571428571429  Z M 14.2119140625 2.95256696428571  C 13.1865234375 2.03180803571429  11.94921875 1.57142857142857  10.5 1.57142857142857  C 9.05078125 1.57142857142857  7.8134765625 2.03180803571429  6.7880859375 2.95256696428571  C 5.7626953125 3.87332589285714  5.25 4.984375  5.25 6.28571428571429  C 5.25 7.58705357142857  5.7626953125 8.69810267857143  6.7880859375 9.61886160714286  C 7.8134765625 10.5396205357143  9.05078125 11  10.5 11  C 11.94921875 11  13.1865234375 10.5396205357143  14.2119140625 9.61886160714286  C 15.2373046875 8.69810267857143  15.75 7.58705357142857  15.75 6.28571428571429  C 15.75 4.984375  15.2373046875 3.87332589285714  14.2119140625 2.95256696428571  Z M 4.662109375 20  L 16.337890625 20  C 17.1399739583333 20.4285714285714  17.8258463541667 20.135974702381  18.3955078125 19.55078125  C 18.9651692708333 18.965587797619  19.25 18.2555803571429  19.25 17.4207589285714  C 19.25 15.4646577380952  18.8922526041667 13.921875  18.1767578125 12.7924107142857  C 17.4612630208333 11.6629464285714  16.43359375 11.069568452381  15.09375 11.0122767857143  C 13.7721354166667 12.0517113095238  12.2408854166667 12.5714285714286  10.5 12.5714285714286  C 8.75911458333333 12.5714285714286  7.22786458333333 12.0517113095238  5.90625 11.0122767857143  C 4.56640625 11.069568452381  3.53873697916667 11.6629464285714  2.8232421875 12.7924107142857  C 2.10774739583333 13.921875  1.75 15.4646577380952  1.75 17.4207589285714  C 1.75 18.2555803571429  2.03483072916667 18.965587797619  2.6044921875 19.55078125  C 3.17415364583333 20.135974702381  3.86002604166667 20.4285714285714  4.662109375 20  Z " fill-rule="nonzero" fill="#797979" stroke="none" transform="matrix(1 0 0 1 300 625 )" />
  </g>
</svg>