<?xml version="1.0" encoding="utf-8"?>
<svg version="1.1" xmlns:xlink="http://www.w3.org/1999/xlink" width="16px" height="21px" xmlns="http://www.w3.org/2000/svg">
  <g transform="matrix(1 0 0 1 -64 -387 )">
    <path d="M 4.44444444444444 6.68181818181818  L 4.44444444444444 9.54545454545455  L 11.5555555555556 9.54545454545455  L 11.5555555555556 6.68181818181818  C 11.5555555555556 5.62784090909091  11.2083333333333 4.72798295454545  10.5138888888889 3.98224431818182  C 9.81944444444444 3.23650568181818  8.98148148148148 2.86363636363636  8 2.86363636363636  C 7.01851851851852 2.86363636363636  6.18055555555556 3.23650568181818  5.48611111111111 3.98224431818182  C 4.79166666666667 4.72798295454545  4.44444444444444 5.62784090909091  4.44444444444444 6.68181818181818  Z M 15.6111111111111 9.96306818181818  C 15.8703703703704 10.2414772727273  16 10.5795454545455  16 10.9772727272727  L 16 19.5681818181818  C 16 19.9659090909091  15.8703703703704 20.3039772727273  15.6111111111111 20.5823863636364  C 15.3518518518519 20.8607954545455  15.037037037037 21  14.6666666666667 21  L 1.33333333333333 21  C 0.962962962962963 21  0.648148148148148 20.8607954545455  0.388888888888889 20.5823863636364  C 0.12962962962963 20.3039772727273  0 19.9659090909091  0 19.5681818181818  L 0 10.9772727272727  C 0 10.5795454545455  0.12962962962963 10.2414772727273  0.388888888888889 9.96306818181818  C 0.648148148148148 9.68465909090909  0.962962962962963 9.54545454545455  1.33333333333333 9.54545454545455  L 1.77777777777778 9.54545454545455  L 1.77777777777778 6.68181818181818  C 1.77777777777778 4.85227272727272  2.38888888888889 3.28125  3.61111111111111 1.96875  C 4.83333333333333 0.65625  6.2962962962963 0  8 0  C 9.7037037037037 0  11.1666666666667 0.65625  12.3888888888889 1.96875  C 13.6111111111111 3.28125  14.2222222222222 4.85227272727272  14.2222222222222 6.68181818181818  L 14.2222222222222 9.54545454545455  L 14.6666666666667 9.54545454545455  C 15.037037037037 9.54545454545455  15.3518518518519 9.68465909090909  15.6111111111111 9.96306818181818  Z " fill-rule="nonzero" fill="#dbae44" stroke="none" transform="matrix(1 0 0 1 64 387 )" />
  </g>
</svg>