<?xml version="1.0" encoding="utf-8"?>
<svg version="1.1" xmlns:xlink="http://www.w3.org/1999/xlink" width="72px" height="72px" xmlns="http://www.w3.org/2000/svg">
  <g transform="matrix(1 0 0 1 -151 -160 )">
    <path d="M 187 160  C 207.16 160  223 175.84  223 196  C 223 216.16  207.16 232  187 232  C 166.84 232  151 216.16  151 196  C 151 175.84  166.84 160  187 160  Z " fill-rule="nonzero" fill="#ffffff" stroke="none" />
    <path d="M 187 160.5  C 206.88 160.5  222.5 176.12  222.5 196  C 222.5 215.88  206.88 231.5  187 231.5  C 167.12 231.5  151.5 215.88  151.5 196  C 151.5 176.12  167.12 160.5  187 160.5  Z " stroke-width="1" stroke="#dbae44" fill="none" />
  </g>
</svg>