<?xml version="1.0" encoding="utf-8"?>
<svg version="1.1" xmlns:xlink="http://www.w3.org/1999/xlink" width="69px" height="27px" xmlns="http://www.w3.org/2000/svg">
  <defs>
    <mask fill="white" id="clip124">
      <path d="M 8.625 27  C 3.79499999999999 27  0 21.06  0 13.5  C 0 5.94000000000001  3.79499999999999 0  8.625 0  L 37.5441176470588 0  L 60.375 0  C 65.205 0  69 5.94000000000001  69 13.5  C 69 21.06  65.205 27  60.375 27  L 8.625 27  Z " fill-rule="evenodd" />
    </mask>
  </defs>
  <g transform="matrix(1 0 0 1 -276 -285 )">
    <path d="M 8.625 27  C 3.79499999999999 27  0 21.06  0 13.5  C 0 5.94000000000001  3.79499999999999 0  8.625 0  L 37.5441176470588 0  L 60.375 0  C 65.205 0  69 5.94000000000001  69 13.5  C 69 21.06  65.205 27  60.375 27  L 8.625 27  Z " fill-rule="nonzero" fill="#ffffff" stroke="none" fill-opacity="0" transform="matrix(1 0 0 1 276 285 )" />
    <path d="M 8.625 27  C 3.79499999999999 27  0 21.06  0 13.5  C 0 5.94000000000001  3.79499999999999 0  8.625 0  L 37.5441176470588 0  L 60.375 0  C 65.205 0  69 5.94000000000001  69 13.5  C 69 21.06  65.205 27  60.375 27  L 8.625 27  Z " stroke-width="2" stroke-dasharray="3,1" stroke="#797979" fill="none" transform="matrix(1 0 0 1 276 285 )" mask="url(#clip124)" />
  </g>
</svg>