<?xml version="1.0" encoding="utf-8"?>
<svg version="1.1" xmlns:xlink="http://www.w3.org/1999/xlink" width="21px" height="21px" xmlns="http://www.w3.org/2000/svg">
  <g transform="matrix(1 0 0 1 -28 -327 )">
    <path d="M 20.2504182933631 0  C 20.4065811489124 0  20.5471277189069 0.0429687500000019  20.6720580033463 0.128906250000001  C 20.9297267150028 0.31640625  21.0351366424986 0.566406249999999  20.9882877858338 0.878906250000001  L 17.9899609592861 18.87890625  C 17.9509202453988 19.10546875  17.8259899609593 19.28125  17.6151701059677 19.40625  C 17.5058561070831 19.46875  17.3848298940324 19.5  17.2520914668154 19.5  C 17.1662018962632 19.5  17.0725041829336 19.48046875  16.9709983268265 19.44140625  L 11.6653653095371 17.2734375  L 8.83100948131623 20.73046875  C 8.69046291132181 20.91015625  8.49916341327384 21  8.25711098717234 21  C 8.15560513106525 21  8.06971556051311 20.984375  7.9994422755159 20.953125  C 7.85108756274401 20.8984375  7.73201338538762 20.806640625  7.64221974344674 20.677734375  C 7.55242610150586 20.548828125  7.50752928053542 20.40625  7.50752928053542 20.25  L 7.50752928053542 16.16015625  L 17.6268823201339 3.75  L 5.10652537646403 14.58984375  L 0.480200780814278 12.69140625  C 0.191299498047964 12.58203125  0.0351366424986057 12.3671875  0.0117122141662019 12.046875  C -0.00390407138873397 11.734375  0.121026213050753 11.50390625  0.386503067484663 11.35546875  L 19.8756274400446 0.105468749999999  C 19.9927495817066 0.035156249999999  20.1176798661461 0  20.2504182933631 0  Z " fill-rule="nonzero" fill="#d59519" stroke="none" transform="matrix(1 0 0 1 28 327 )" />
  </g>
</svg>