<?xml version="1.0" encoding="utf-8"?>
<svg version="1.1" xmlns:xlink="http://www.w3.org/1999/xlink" width="21px" height="21px" xmlns="http://www.w3.org/2000/svg">
  <g transform="matrix(1 0 0 1 -28 -398 )">
    <path d="M 19.8756274400446 0.128762541806019  C 20.148912437256 -0.0351170568561896  20.4143892916899 -0.0273132664437046  20.6720580033463 0.152173913043479  C 20.9297267150028 0.339464882943143  21.0351366424986 0.589186176142696  20.9882877858338 0.901337792642141  L 17.9899609592861 18.88127090301  C 17.9509202453988 19.1075808249721  17.8259899609593 19.2831661092531  17.6151701059677 19.4080267558528  C 17.5058561070831 19.4704570791527  17.3848298940324 19.5016722408027  17.2520914668154 19.5016722408027  C 17.1662018962632 19.5016722408027  17.0725041829336 19.4821627647715  16.9709983268265 19.443143812709  L 10.7986614612381 16.9264214046823  L 7.30842163970998 20.7541806020067  C 7.16787506971556 20.9180602006689  6.98438371444506 21  6.75794757389849 21  C 6.64863357501394 21  6.55883993307306 20.984392419175  6.48856664807585 20.9531772575251  C 6.34021193530396 20.8985507246377  6.22308979364194 20.806856187291  6.13720022308979 20.6780936454849  C 6.05131065253765 20.5493311036789  6.00836586726157 20.4069119286511  6.00836586726157 20.2508361204013  L 6.00836586726157 14.9598662207358  L 0.480200780814278 12.7006688963211  C 0.191299498047964 12.5914158305463  0.0351366424986057 12.3768115942029  0.0117122141662019 12.056856187291  C -0.0117122141662019 11.752508361204  0.113218070273285 11.5222965440357  0.386503067484663 11.366220735786  L 19.8756274400446 0.128762541806019  Z M 10.904071388734 15.3461538461538  L 16.6664807585053 17.6989966555184  L 19.2548800892359 2.2123745819398  L 2.4595649749024 11.8929765886288  L 6.39486893474624 13.4966555183947  L 16.5025097601785 6.01672240802676  L 10.904071388734 15.3461538461538  Z " fill-rule="nonzero" fill="#d59519" stroke="none" transform="matrix(1 0 0 1 28 398 )" />
  </g>
</svg>