<?xml version="1.0" encoding="utf-8"?>
<svg version="1.1" xmlns:xlink="http://www.w3.org/1999/xlink" width="26px" height="20px" xmlns="http://www.w3.org/2000/svg">
  <g transform="matrix(1 0 0 1 -28 -174 )">
    <path d="M 12.8857421875 11.5299479166667  C 12.9619140625 11.9943576388889  13 12.5043402777778  13 13.0598958333333  C 13 13.6154513888889  12.8434244791667 14.0776909722222  12.5302734375 14.4466145833333  C 12.2171223958333 14.8155381944444  11.83203125 15  11.375 15  L 4.875 15  C 4.41796875 15  4.03287760416667 14.8155381944444  3.7197265625 14.4466145833333  C 3.40657552083333 14.0776909722222  3.25 13.6154513888889  3.25 13.0598958333333  C 3.25 12.5043402777778  3.2880859375 11.9943576388889  3.3642578125 11.5299479166667  C 3.4404296875 11.0655381944444  3.56526692708333 10.6184895833333  3.73876953125 10.1888020833333  C 3.91227213541667 9.75911458333333  4.16829427083333 9.42057291666667  4.5068359375 9.17317708333333  C 4.84537760416667 8.92578125  5.255859375 8.80208333333333  5.73828125 8.80208333333333  C 5.7890625 8.83680555555556  5.916015625 8.91493055555556  6.119140625 9.03645833333333  C 6.322265625 9.15798611111111  6.48095703125 9.25130208333333  6.59521484375 9.31640625  C 6.70947265625 9.38151041666667  6.85970052083333 9.45746527777778  7.0458984375 9.54427083333333  C 7.23209635416667 9.63107638888889  7.4140625 9.69401041666667  7.591796875 9.73307291666667  C 7.76953125 9.77213541666667  7.947265625 9.79166666666667  8.125 9.79166666666667  C 8.302734375 9.79166666666667  8.48046875 9.77213541666667  8.658203125 9.73307291666667  C 8.8359375 9.69401041666667  9.01790364583333 9.63107638888889  9.2041015625 9.54427083333333  C 9.39029947916667 9.45746527777778  9.54052734375 9.38151041666667  9.65478515625 9.31640625  C 9.76904296875 9.25130208333333  9.927734375 9.15798611111111  10.130859375 9.03645833333333  C 10.333984375 8.91493055555556  10.4609375 8.83680555555556  10.51171875 8.80208333333333  C 10.994140625 8.80208333333333  11.4046223958333 8.92578125  11.7431640625 9.17317708333333  C 12.0817057291667 9.42057291666667  12.3377278645833 9.75911458333333  12.51123046875 10.1888020833333  C 12.6847330729167 10.6184895833333  12.8095703125 11.0655381944444  12.8857421875 11.5299479166667  Z M 10.16259765625 4.19921875  C 10.7254231770833 4.77647569444444  11.0068359375 5.47309027777778  11.0068359375 6.2890625  C 11.0068359375 7.10503472222222  10.7254231770833 7.80164930555555  10.16259765625 8.37890625  C 9.59977213541667 8.95616319444444  8.92057291666667 9.24479166666667  8.125 9.24479166666667  C 7.32942708333333 9.24479166666667  6.65022786458333 8.95616319444444  6.08740234375 8.37890625  C 5.52457682291667 7.80164930555555  5.2431640625 7.10503472222222  5.2431640625 6.2890625  C 5.2431640625 5.47309027777778  5.52457682291667 4.77647569444444  6.08740234375 4.19921875  C 6.65022786458333 3.62196180555555  7.32942708333333 3.33333333333333  8.125 3.33333333333333  C 8.92057291666667 3.33333333333333  9.59977213541667 3.62196180555555  10.16259765625 4.19921875  Z M 22.6357421875 11.7838541666667  C 22.7119140625 11.8619791666667  22.75 11.9618055555556  22.75 12.0833333333333  L 22.75 12.9166666666667  C 22.75 13.0381944444444  22.7119140625 13.1380208333333  22.6357421875 13.2161458333333  C 22.5595703125 13.2942708333333  22.4622395833333 13.3333333333333  22.34375 13.3333333333333  L 15.03125 13.3333333333333  C 14.9127604166667 13.3333333333333  14.8154296875 13.2942708333333  14.7392578125 13.2161458333333  C 14.6630859375 13.1380208333333  14.625 13.0381944444444  14.625 12.9166666666667  L 14.625 12.0833333333333  C 14.625 11.9618055555556  14.6630859375 11.8619791666667  14.7392578125 11.7838541666667  C 14.8154296875 11.7057291666667  14.9127604166667 11.6666666666667  15.03125 11.6666666666667  L 22.34375 11.6666666666667  C 22.4622395833333 11.6666666666667  22.5595703125 11.7057291666667  22.6357421875 11.7838541666667  Z M 22.61669921875 8.47005208333333  C 22.70556640625 8.56119791666667  22.75 8.671875  22.75 8.80208333333333  L 22.75 9.53125  C 22.75 9.66145833333333  22.70556640625 9.77213541666667  22.61669921875 9.86328125  C 22.52783203125 9.95442708333333  22.419921875 10  22.29296875 10  L 15.08203125 10  C 14.955078125 10  14.84716796875 9.95442708333333  14.75830078125 9.86328125  C 14.66943359375 9.77213541666667  14.625 9.66145833333333  14.625 9.53125  L 14.625 8.80208333333333  C 14.625 8.671875  14.66943359375 8.56119791666667  14.75830078125 8.47005208333333  C 14.84716796875 8.37890625  14.955078125 8.33333333333333  15.08203125 8.33333333333333  L 22.29296875 8.33333333333333  C 22.419921875 8.33333333333333  22.52783203125 8.37890625  22.61669921875 8.47005208333333  Z M 22.6357421875 5.1171875  C 22.7119140625 5.1953125  22.75 5.29513888888889  22.75 5.41666666666667  L 22.75 6.25  C 22.75 6.37152777777778  22.7119140625 6.47135416666667  22.6357421875 6.54947916666667  C 22.5595703125 6.62760416666667  22.4622395833333 6.66666666666667  22.34375 6.66666666666667  L 15.03125 6.66666666666667  C 14.9127604166667 6.66666666666667  14.8154296875 6.62760416666667  14.7392578125 6.54947916666667  C 14.6630859375 6.47135416666667  14.625 6.37152777777778  14.625 6.25  L 14.625 5.41666666666667  C 14.625 5.29513888888889  14.6630859375 5.1953125  14.7392578125 5.1171875  C 14.8154296875 5.0390625  14.9127604166667 5  15.03125 5  L 22.34375 5  C 22.4622395833333 5  22.5595703125 5.0390625  22.6357421875 5.1171875  Z M 24.25439453125 18.2096354166667  C 24.3347981770833 18.1271701388889  24.375 18.0295138888889  24 17.9166666666667  L 24 2.08333333333333  C 24.375 1.97048611111111  24.3347981770833 1.87282986111111  24.25439453125 1.79036458333333  C 24.1739908854167 1.70789930555555  24.0787760416667 1.66666666666667  23.96875 2  L 2.03125 2  C 1.92122395833333 1.66666666666667  1.82600911458333 1.70789930555555  1.74560546875 1.79036458333333  C 1.66520182291667 1.87282986111111  1.625 1.97048611111111  2 2.08333333333333  L 2 17.9166666666667  C 1.625 18.0295138888889  1.66520182291667 18.1271701388889  1.74560546875 18.2096354166667  C 1.82600911458333 18.2921006944444  1.92122395833333 18.3333333333333  2.03125 18.3333333333333  L 6.5 18.3333333333333  L 6.5 17.0833333333333  C 6.5 16.9618055555556  6.5380859375 16.8619791666667  6.6142578125 16.7838541666667  C 6.6904296875 16.7057291666667  6.78776041666667 16.6666666666667  6.90625 16.6666666666667  L 7.71875 16.6666666666667  C 7.83723958333333 16.6666666666667  7.9345703125 16.7057291666667  8.0107421875 16.7838541666667  C 8.0869140625 16.8619791666667  8.125 16.9618055555556  8.125 17.0833333333333  L 8.125 18.3333333333333  L 17.875 18.3333333333333  L 17.875 17.0833333333333  C 17.875 16.9618055555556  17.9130859375 16.8619791666667  17.9892578125 16.7838541666667  C 18.0654296875 16.7057291666667  18.1627604166667 16.6666666666667  18.28125 16.6666666666667  L 19.09375 16.6666666666667  C 19.2122395833333 16.6666666666667  19.3095703125 16.7057291666667  19.3857421875 16.7838541666667  C 19.4619140625 16.8619791666667  19.5 16.9618055555556  19.5 17.0833333333333  L 19.5 18.3333333333333  L 23.96875 18.3333333333333  C 24.0787760416667 18.3333333333333  24.1739908854167 18.2921006944444  24.25439453125 18.2096354166667  Z M 25.4033203125 0.611979166666667  C 25.8011067708333 1.01996527777778  26 1.51041666666667  26 2.08333333333333  L 26 17.9166666666667  C 26 18.4895833333333  25.8011067708333 18.9800347222222  25.4033203125 19.3880208333333  C 25.0055338541667 19.7960069444444  24.52734375 20  23.96875 20  L 2.03125 20  C 1.47265625 20  0.994466145833333 19.7960069444444  0.5966796875 19.3880208333333  C 0.198893229166667 18.9800347222222  0 18.4895833333333  0 17.9166666666667  L 0 2.08333333333333  C 0 1.51041666666667  0.198893229166667 1.01996527777778  0.5966796875 0.611979166666667  C 0.994466145833333 0.203993055555554  1.47265625 0  2.03125 0  L 23.96875 0  C 24.52734375 0  25.0055338541667 0.203993055555554  25.4033203125 0.611979166666667  Z " fill-rule="nonzero" fill="#d59519" stroke="none" transform="matrix(1 0 0 1 28 174 )" />
  </g>
</svg>