<?xml version="1.0" encoding="utf-8"?>
<svg version="1.1" xmlns:xlink="http://www.w3.org/1999/xlink" width="34px" height="31px" xmlns="http://www.w3.org/2000/svg">
  <g transform="matrix(1 0 0 1 -20 -18 )">
    <path d="M 32.9944196428571 14.008125  C 33.6648065476191 15.7389583333333  34 17.8895833333333  34 20.46  C 34 22.6041666666667  33.1968005952381 25.516875  31.5904017857143 29.198125  C 31.5524553571429 29.2885416666667  31.4860491071429 29.4435416666667  31.3911830357143 29.663125  C 31.2963169642857 29.8827083333333  31.2109375 30.0764583333333  31.1350446428571 30.244375  C 31.0591517857143 30.4122916666667  30.9769345238095 30.554375  30.8883928571429 30.670625  C 30.7366071428571 30.8902083333333  30.5595238095238 31  30.3571428571429 31  C 30.1674107142857 31  30.018787202381 30.9354166666667  29.9112723214286 30.80625  C 29.8037574404762 30.6770833333333  29.75 30.515625  29.75 30.321875  C 29.75 30.205625  29.7658110119048 30.0344791666667  29.7974330357143 29.8084375  C 29.8290550595238 29.5823958333333  29.8448660714286 29.430625  29.8448660714286 29.353125  C 29.9081101190476 28.4747916666667  29.9397321428571 27.6804166666667  29.9397321428571 26.97  C 29.9397321428571 25.6654166666667  29.8290550595238 24.4964583333333  29.6077008928571 23.463125  C 29.3863467261905 22.4297916666667  29.0796130952381 21.5353125  28.6875 20.7796875  C 28.2953869047619 20.0240625  27.7894345238095 19.3717708333333  27.1696428571429 18.8228125  C 26.5498511904762 18.2738541666667  25.8826264880952 17.825  25.16796875 17.47625  C 24.4533110119048 17.1275  23.6121651785714 16.8530208333333  22.64453125 16.6528125  C 21.6768973214286 16.4526041666667  20.7029389880952 16.31375  19.72265625 16.23625  C 18.7423735119048 16.15875  17.6324404761905 16.12  16.3928571428571 16.12  L 12.1428571428571 16.12  L 12.1428571428571 21.08  C 12.1428571428571 21.4158333333333  12.022693452381 21.7064583333333  11.7823660714286 21.951875  C 11.5420386904762 22.1972916666667  11.2574404761905 22.32  10.9285714285714 22.32  C 10.5997023809524 22.32  10.3151041666667 22.1972916666667  10.0747767857143 21.951875  L 0.360491071428571 12.031875  C 0.12016369047619 11.7864583333333  0 11.4958333333333  0 11.16  C 0 10.8241666666667  0.12016369047619 10.5335416666667  0.360491071428571 10.288125  L 10.0747767857143 0.368124999999999  C 10.3151041666667 0.122708333333332  10.5997023809524 0  10.9285714285714 0  C 11.2574404761905 0  11.5420386904762 0.122708333333332  11.7823660714286 0.368124999999999  C 12.022693452381 0.613541666666663  12.1428571428571 0.904166666666663  12.1428571428571 1.24  L 12.1428571428571 6.2  L 16.3928571428571 6.2  C 25.4114583333333 6.2  30.9453125 8.80270833333333  32.9944196428571 14.008125  Z " fill-rule="nonzero" fill="#1e2b33" stroke="none" fill-opacity="0.407843137254902" transform="matrix(1 0 0 1 20 18 )" />
  </g>
</svg>