<?xml version="1.0" encoding="utf-8"?>
<svg version="1.1" xmlns:xlink="http://www.w3.org/1999/xlink" width="33px" height="28px" xmlns="http://www.w3.org/2000/svg">
  <g transform="matrix(1 0 0 1 -164 -622 )">
    <path d="M 11.9387019230769 23.6647727272727  C 12.4411057692308 24.1685606060606  12.6923076923077 24.7651515151515  12.6923076923077 25.4545454545455  C 12.6923076923077 26.1439393939394  12.4411057692308 26.7405303030303  11.9387019230769 27.2443181818182  C 11.4362980769231 27.7481060606061  10.8413461538462 28  10.1538461538462 28  C 9.46634615384616 28  8.87139423076923 27.7481060606061  8.36899038461539 27.2443181818182  C 7.86658653846154 26.7405303030303  7.61538461538462 26.1439393939394  7.61538461538462 25.4545454545455  C 7.61538461538462 24.7651515151515  7.86658653846154 24.1685606060606  8.36899038461539 23.6647727272727  C 8.87139423076923 23.1609848484849  9.46634615384616 22.9090909090909  10.1538461538462 22.9090909090909  C 10.8413461538462 22.9090909090909  11.4362980769231 23.1609848484849  11.9387019230769 23.6647727272727  Z M 29.7079326923077 23.6647727272727  C 30.2103365384615 24.1685606060606  30.4615384615385 24.7651515151515  30.4615384615385 25.4545454545455  C 30.4615384615385 26.1439393939394  30.2103365384615 26.7405303030303  29.7079326923077 27.2443181818182  C 29.2055288461538 27.7481060606061  28.6105769230769 28  27.9230769230769 28  C 27.2355769230769 28  26.640625 27.7481060606061  26.1382211538462 27.2443181818182  C 25.6358173076923 26.7405303030303  25.3846153846154 26.1439393939394  25.3846153846154 25.4545454545455  C 25.3846153846154 24.7651515151515  25.6358173076923 24.1685606060606  26.1382211538462 23.6647727272727  C 26.640625 23.1609848484849  27.2355769230769 22.9090909090909  27.9230769230769 22.9090909090909  C 28.6105769230769 22.9090909090909  29.2055288461538 23.1609848484849  29.7079326923077 23.6647727272727  Z M 32.6231971153846 2.92329545454545  C 32.8743990384615 3.17518939393939  33 3.47348484848484  33 3.81818181818182  L 33 14  C 33 14.3181818181818  32.8909254807692 14.5999053030303  32.6727764423077 14.8451704545455  C 32.4546274038462 15.0904356060606  32.1868990384615 15.2329545454545  31.8695913461538 15.2727272727273  L 11.1652644230769 17.6988636363636  C 11.3371394230769 18.4943181818182  11.4230769230769 18.9583333333333  11.4230769230769 19.0909090909091  C 11.4230769230769 19.3030303030303  11.2644230769231 19.7272727272727  10.9471153846154 20  L 29.1923076923077 20  C 29.5360576923077 20.3636363636364  29.8335336538462 20.4895833333333  30.0847355769231 20.7414772727273  C 30.3359375 20.9933712121212  30.4615384615385 21.2916666666667  30.4615384615385 21.6363636363636  C 30.4615384615385 21.9810606060606  30.3359375 22.2793560606061  30.0847355769231 22.53125  C 29.8335336538462 22.7831439393939  29.5360576923077 22.9090909090909  29.1923076923077 23  L 8.88461538461539 23  C 8.54086538461539 22.9090909090909  8.24338942307692 22.7831439393939  7.9921875 22.53125  C 7.74098557692308 22.2793560606061  7.61538461538462 21.9810606060606  7.61538461538462 21.6363636363636  C 7.61538461538462 21.4905303030303  7.66826923076923 21.2817234848485  7.77403846153846 21.0099431818182  C 7.87980769230769 20.7381628787879  7.98557692307692 20.4995265151515  8.09134615384615 20.2940340909091  C 8.19711538461539 20.0885416666667  8.33924278846154 19.8233901515152  8.51772836538461 19.4985795454545  C 8.69621394230769 19.1737689393939  8.79867788461539 18.9782196969697  8.82512019230769 18.9119318181818  L 5.31490384615385 2.54545454545455  L 1.26923076923077 2.54545454545455  C 0.925480769230769 2.54545454545455  0.628004807692308 2.41950757575757  0.376802884615385 2.16761363636364  C 0.125600961538462 1.9157196969697  0 1.61742424242424  0 1.27272727272727  C 0 0.928030303030301  0.125600961538462 0.629734848484845  0.376802884615385 0.377840909090911  C 0.628004807692308 0.125946969696967  0.925480769230769 0  1.26923076923077 0  L 6.34615384615385 0  C 6.55769230769231 0  6.74609375 0.0430871212121193  6.91135817307692 0.129261363636364  C 7.07662259615385 0.215435606060606  7.20552884615385 0.318181818181818  7.29807692307692 0.4375  C 7.390625 0.556818181818182  7.4765625 0.71922348484848  7.55588942307692 0.924715909090911  C 7.63521634615385 1.13020833333333  7.68810096153846 1.30255681818182  7.71454326923077 1.44176136363636  C 7.74098557692308 1.58096590909091  7.77734375 1.77651515151515  7.82361778846154 2.02840909090909  C 7.86989182692308 2.28030303030303  7.89963942307692 2.45265151515151  7.91286057692308 3  L 31.7307692307692 3  C 32.0745192307692 2.54545454545455  32.3719951923077 2.67140151515151  32.6231971153846 2.92329545454545  Z " fill-rule="nonzero" fill="#d8ab45" stroke="none" transform="matrix(1 0 0 1 164 622 )" />
  </g>
</svg>